# xmcd CD database file
#
# Track frame offsets:
#	150
#	18104
#	42332
#	60613
#	72651
#	92825
#	113413
#	130417
#	151147
#	169666
#
# Disc length: 2440 seconds
#
# Revision: 0
# Processed by: cddbd v1.5.1PL0 Copyright (c) Steve Scherf et al.
# Submitted via: CDex 1.51
#
DISCID=7c09860a
DTITLE=Tres Chicas - Sweetwater
DYEAR=2004
DGENRE=alt.country
TTITLE0=Sweetwater
TTITLE1=Heartbeat
TTITLE2=Foot of the Bed
TTITLE3=Deep As Your Pocket
TTITLE4=Am I Too Blue
TTITLE5=Desire
TTITLE6=When You Sleep
TTITLE7=When Was the Last Time
TTITLE8=In A While
TTITLE9=Take the Devil Out of Me
EXTD=YEAR: 2004
EXTT0=
EXTT1=
EXTT2=
EXTT3=
EXTT4=
EXTT5=
EXTT6=
EXTT7=
EXTT8=
EXTT9=
PLAYORDER=
